Coordinates
version=1
nRows=13
nColumns=36
inDegrees=yes

Units are S.I. units (second, meters, Newtons, ...)
If the header above contains a line with 'inDegrees', this indicates whether rotational values are in degrees (yes) or radians (no).

endheader
time	pelvis_tilt	pelvis_list	pelvis_rotation	pelvis_tx	pelvis_ty	pelvis_tz	hip_flexion_r	hip_adduction_r	hip_rotation_r	knee_angle_r	knee_angle_r_beta	ankle_angle_r	subtalar_angle_r	mtp_angle_r	hip_flexion_l	hip_adduction_l	hip_rotation_l	knee_angle_l	knee_angle_l_beta	ankle_angle_l	subtalar_angle_l	mtp_angle_l	lumbar_extension	lumbar_bending	lumbar_rotation	arm_flex_r	arm_add_r	arm_rot_r	elbow_flex_r	pro_sup_r	arm_flex_l	arm_add_l	arm_rot_l	elbow_flex_l	pro_sup_l
      2.68750000	     -6.38743681	     -0.15324405	      2.01198746	      0.46556472	      0.96644554	     -0.05861821	      9.66459698	     -1.56367978	     -0.83971842	      9.01901315	      0.15741147	      4.26683948	     -7.08079388	     -7.49999987	     14.87979930	     -3.09381404	      2.30218403	     17.07743171	      0.29805741	      4.40351152	      0.11402387	     -7.49999987	    -15.73289243	      2.85237004	     -1.74926825	      7.40673771	    -14.75392434	     10.37131059	     52.96711585	     81.21481870	     11.61044297	    -17.63338117	     10.74999342	     61.18309615	     63.58001719
      2.69166670	     -6.49768370	     -0.16262635	      2.05695549	      0.46741011	      0.96703328	     -0.05823636	      9.17688415	     -1.50811035	     -0.97751154	      7.93828910	      0.13854928	      3.95761681	     -6.86438100	     -7.49999987	     14.36961106	     -3.14480924	      2.14786471	     16.01617571	      0.27953500	      4.04036692	      0.39632263	     -7.49999987	    -15.06961110	      2.77755246	     -1.85816517	      6.83667945	    -14.71583606	     10.48352857	     52.47969626	     80.98359417	     11.17372169	    -17.58577062	     10.80355262	     60.87213455	     63.53408847
      2.69583330	     -6.60963864	     -0.16475477	      2.05426692	      0.46797707	      0.96521233	     -0.05927998	      8.75229626	     -1.49342818	     -1.26257326	      7.00530610	      0.12226566	      3.73767073	     -6.40243976	     -7.49999987	     13.92958459	     -3.13963366	      2.03422130	     15.10937883	      0.26370841	      3.93419771	      0.72166464	     -7.49999987	    -14.43419406	      2.70946998	     -1.93558391	      6.30929117	    -14.67261410	     10.61793817	     51.83514313	     80.09334156	     10.74973371	    -17.49788613	     10.83451043	     60.48789509	     63.38028413
      2.70000000	     -6.79845664	     -0.15580314	      2.09207478	      0.46810515	      0.96850239	     -0.05875297	      8.45928389	     -1.51007075	     -1.55592009	      6.11834491	      0.10678526	      3.47682086	     -5.98361655	     -7.49999987	     13.60520484	     -3.12280867	      1.87739583	     14.19443553	      0.24773964	      3.69072693	      1.02208530	     -7.49999987	    -13.65737943	      2.61527491	     -2.15848409	      5.96246416	    -14.59058052	     11.02933575	     50.83582192	     79.27925912	     10.32579092	    -17.44567057	     10.96075769	     59.87640938	     63.35073476
      2.70416670	     -6.87551507	     -0.13287150	      2.15133176	      0.46769283	      0.96902803	     -0.05613263	      8.07301613	     -1.48254619	     -1.82617889	      5.22710033	      0.09123011	      3.08668804	     -5.78337303	     -7.49999987	     13.18359999	     -3.13689658	      1.77390948	     13.33461741	      0.23273298	      3.37811478	      1.33063518	     -7.49999987	    -13.22573415	      2.46740334	     -2.32980801	      5.49363278	    -14.45982403	     11.07898068	     50.40606941	     79.27398391	     10.01676557	    -17.47964834	     10.96358007	     59.59822005	     63.39961442
      2.70833330	     -6.96691210	     -0.13180814	      2.18995756	      0.46817270	      0.97221384	     -0.05629255	      7.70155707	     -1.42460105	     -2.08945545	      4.39134707	      0.07664346	      2.63663547	     -5.42980682	     -7.49999987	     12.86451127	     -3.15213961	      1.76985680	     12.56972722	      0.21938313	      3.05171197	      1.78318664	     -7.49999987	    -12.81815321	      2.34486040	     -2.42744910	      5.06525815	    -14.33119241	     11.10140011	     49.90443953	     78.79875373	      9.71926601	    -17.46924090	     11.02215330	     59.31310656	     63.37755559
      2.71250000	     -7.12159083	     -0.10819724	      2.28467063	      0.47121714	      0.97450858	     -0.06124741	      7.36349464	     -1.51527373	     -2.35702175	      3.64690713	      0.06365054	      2.14721691	     -5.08099431	     -7.49999987	     12.54111460	     -3.01410711	      1.72860927	     11.75943372	      0.20524084	      2.80574310	      2.09207624	     -7.49999987	    -12.27053917	      2.33386909	     -2.55400922	      4.49510129	    -14.41393357	     11.10969024	     49.48091708	     78.82554091	      9.23345538	    -17.29314902	     11.15027624	     59.12907663	     63.42116178
      2.71666670	     -7.01315072	     -0.07540282	      2.28450203	      0.46996133	      0.97502458	     -0.05932398	      6.84522968	     -1.55011206	     -2.75596601	      3.00357241	      0.05242223	      1.86985663	     -4.35301250	     -7.49999987	     11.97289607	     -2.93745940	      1.55175718	     11.04173796	      0.19271468	      2.63568781	      2.60059558	     -7.49999987	    -12.12186692	      2.23385814	     -2.69878172	      4.40584701	    -14.26859059	     11.05958457	     48.38841681	     78.88122743	      9.05387228	    -17.13818054	     11.24171043	     58.38913463	     63.56657926
      2.72083330	     -6.96746049	     -0.05969709	      2.32783658	      0.47245395	      0.97409516	     -0.05942902	      6.36221597	     -1.56377653	     -3.12503961	      2.42466772	      0.04231843	      1.61931527	     -4.00227047	     -7.49999987	     11.45452430	     -2.87178016	      1.38306353	     10.30755537	      0.17990078	      2.49843241	      2.88307497	     -7.49999987	    -11.89210538	      2.16491563	     -2.80889773	      3.92065017	    -14.28575038	     11.02695657	     48.07539361	     78.01569847	      8.69404554	    -16.99258483	     11.29034474	     58.10027219	     63.46305776
      2.72500000	     -7.01533153	     -0.08706720	      2.29403274	      0.47249003	      0.97438716	     -0.06053450	      6.08572270	     -1.53723573	     -3.49280779	      1.99004339	      0.03473281	      1.52496788	     -3.52984127	     -7.49999987	     11.06761461	     -2.86122030	      1.15935175	      9.64735146	      0.16837805	      2.56288062	      3.13287402	     -7.49999987	    -11.44547402	      2.15482053	     -2.82825651	      3.70466604	    -14.35209156	     11.44687749	     47.03646831	     76.73400581	      8.49844304	    -16.78032628	     11.65230993	     57.27814238	     63.47989201
      2.72916670	     -6.95082204	     -0.09165773	      2.30250707	      0.47234860	      0.97409119	     -0.06179730	      5.72377454	     -1.53724675	     -3.94589733	      1.56853370	      0.02737608	      1.56905768	     -2.88622686	     -7.49999987	     10.60943831	     -2.79254162	      1.08185460	      9.00270748	      0.15712689	      2.56357654	      3.17022952	     -7.49999987	    -11.30341628	      2.18538542	     -2.89164130	      3.32209347	    -14.45176576	     11.43900727	     46.84921008	     75.05073429	      8.24473686	    -16.54814417	     11.63128306	     56.87146013	     63.23689214
      2.73333330	     -7.02912041	     -0.05170920	      2.28538219	      0.47343613	      0.97408834	     -0.06319003	      5.54120596	     -1.61045865	     -4.12354377	      1.20630390	      0.02105397	      1.40152586	     -2.59195303	     -7.49999987	     10.30372525	     -2.65945599	      0.87938629	      8.40036962	      0.14661411	      2.52499414	      3.49331081	     -7.49999987	    -10.92472794	      2.14429498	     -3.12684769	      3.18009753	    -14.51342275	     11.63479071	     46.01431766	     78.05788140	      7.78293218	    -16.37456025	     11.39519229	     56.43317241	     65.41596436
      2.73750000	     -7.07600396	     -0.04150259	      2.20937225	      0.47385987	      0.97350769	     -0.06428932	      5.38657178	     -1.68052518	     -4.40515146	      0.92325274	      0.01611380	      1.37132075	     -1.92998990	     -7.49999987	      9.95592385	     -2.55068883	      0.79520353	      7.77161874	      0.13564034	      2.52669546	      3.76382547	     -7.49999987	    -10.61773572	      2.16675607	     -3.09355829	      2.81576142	    -14.74742547	     12.13657869	     45.77566391	     74.79990856	      7.61918556	    -16.27203477	     12.09043317	     55.92747362	     64.52700297
